<svg xmlns="http://www.w3.org/2000/svg" viewBox="0 0 100 100" width="100" height="100">
    <defs>
        <linearGradient id="grad1" x1="0%" y1="0%" x2="100%" y2="100%">
        <stop offset="0%" style="stop-color:#4285F4;stop-opacity:1" />
        <stop offset="100%" style="stop-color:#34A853;stop-opacity:1" />
        </linearGradient>
    </defs>
    
    <!-- Fondo circular -->
    <circle cx="50" cy="50" r="48" fill="url(#grad1)" />
    
    <!-- Símbolo de código (llaves) -->
    <path d="M30 35 L20 50 L30 65 M70 35 L80 50 L70 65" stroke="white" stroke-width="4" fill="none" />
    
    <!-- Cerebro estilizado (representando IA) -->
    <path d="M50 25 Q60 25 65 35 Q70 45 65 55 Q60 65 50 65 Q40 65 35 55 Q30 45 35 35 Q40 25 50 25" 
            fill="none" stroke="white" stroke-width="3" />
    
    <!-- Conexiones neuronales -->
    <circle cx="45" cy="40" r="2" fill="white" />
    <circle cx="55" cy="40" r="2" fill="white" />
    <circle cx="50" cy="50" r="2" fill="white" />
    <circle cx="43" cy="55" r="2" fill="white" />
    <circle cx="57" cy="55" r="2" fill="white" />
    
    <line x1="45" y1="40" x2="50" y2="50" stroke="white" stroke-width="1" />
    <line x1="55" y1="40" x2="50" y2="50" stroke="white" stroke-width="1" />
    <line x1="43" y1="55" x2="50" y2="50" stroke="white" stroke-width="1" />
    <line x1="57" y1="55" x2="50" y2="50" stroke="white" stroke-width="1" />
    
    <!-- Texto -->
    <text x="50" y="85" font-family="Arial, sans-serif" font-size="10" fill="white" text-anchor="middle">Software + IA</text>
</svg>